<svg xmlns="http://www.w3.org/2000/svg" viewBox="0 0 64 64" role="img" aria-labelledby="title desc">
	<title id="title">React Browser Signals favicon</title>
	<desc id="desc">A browser window with signal waves representing browser capability hooks.</desc>
	<defs>
		<linearGradient id="bg" x1="8" y1="8" x2="56" y2="56" gradientUnits="userSpaceOnUse">
			<stop offset="0" stop-color="#006d77" />
			<stop offset="1" stop-color="#1f8f98" />
		</linearGradient>
		<linearGradient id="waves" x1="20" y1="18" x2="44" y2="42" gradientUnits="userSpaceOnUse">
			<stop offset="0" stop-color="#83c5be" />
			<stop offset="1" stop-color="#edf6f9" />
		</linearGradient>
	</defs>

	<rect x="4" y="4" width="56" height="56" rx="14" fill="url(#bg)" />
	<rect x="13" y="14" width="38" height="31" rx="6" fill="#ffffff" fill-opacity="0.94" />
	<rect x="13" y="14" width="38" height="7" rx="6" fill="#d8f0ec" />
	<circle cx="18" cy="17.5" r="1.1" fill="#0f7f88" />
	<circle cx="22" cy="17.5" r="1.1" fill="#0f7f88" />
	<circle cx="26" cy="17.5" r="1.1" fill="#0f7f88" />

	<path d="M21 35c3-3 7-3 10 0" stroke="url(#waves)" stroke-width="2.5" stroke-linecap="round" fill="none" />
	<path d="M18 38c5-5 12-5 17 0" stroke="url(#waves)" stroke-width="2.5" stroke-linecap="round" fill="none" />
	<path d="M16 41c6.5-7 16.5-7 23 0" stroke="url(#waves)" stroke-width="2.5" stroke-linecap="round" fill="none" />
	<circle cx="27.5" cy="33.6" r="1.8" fill="#83c5be" />

	<path d="M40 47c0-3.3 2.7-6 6-6h2.2" stroke="#ffd4c7" stroke-width="2.5" stroke-linecap="round" fill="none" />
	<circle cx="49.5" cy="41" r="2.2" fill="#ffd4c7" />
</svg>